<svg xmlns="http://www.w3.org/2000/svg" width="96" height="96" viewBox="0 0 96 96"><circle cx="43.4387" cy="42.8076" r="41.5135" style="fill:#fff;opacity:0.15"/><g style="opacity:0.6000000000000001"><path d="M24.1951,23.1917a27.7408,27.7408,0,1,1,0,39.2318,27.7412,27.7412,0,0,1,0-39.2318" style="fill:#fff;fill-rule:evenodd"/><g style="opacity:0.85"><path d="M46.1033,15.176a40.46,40.46,0,0,0,1.6716,55.057,27.7153,27.7153,0,0,0-1.6716-55.057Z" style="fill:#d6d6d6;fill-rule:evenodd"/></g></g><g style="opacity:0.6000000000000001"><path d="M79.6672,45.397H67.9924a2.6,2.6,0,0,1,0-5.2H79.6672a2.6,2.6,0,0,1,0,5.2Z" style="fill:#e4d9c6"/></g><g style="opacity:0.6000000000000001"><path d="M52.5861,24.5967h-30.81a2.6,2.6,0,0,1,0-5.2H52.5861a2.6,2.6,0,0,1,0,5.2Z" style="fill:#e4d9c6"/></g><g style="opacity:0.6000000000000001"><path d="M70.9113,66.1968H41.0734a2.6,2.6,0,0,1,0-5.2H70.9113a2.6,2.6,0,0,1,0,5.2Z" style="fill:#e4d9c6"/></g><path d="M70.5861,29.7969H36.4416a2.6,2.6,0,0,0,0,5.2h3.9907a2.5992,2.5992,0,0,1-.0079,5.1984v.0013H10.1232a2.6,2.6,0,0,0,0,5.2h9.6286a2.5993,2.5993,0,0,1-.0067,5.1985v.0012h-3.159a2.6,2.6,0,0,0,0,5.2h25.46a2.6,2.6,0,0,0,0-5.2h-1.46v-.0012A2.5993,2.5993,0,0,1,40.58,45.397H57.6135a2.6,2.6,0,0,0,0-5.2H51.1271v-.0013a2.5992,2.5992,0,0,1-.0079-5.1984H70.5861a2.6,2.6,0,0,0,0-5.2Z" style="fill:#e4d9c6"/><path d="M15.3605,34.9971H26.0627a2.6,2.6,0,0,0,0-5.2H15.3605a2.6,2.6,0,0,0,0,5.2Z" style="fill:#e4d9c6"/><path d="M60.2082,50.5967H52.424a2.6,2.6,0,0,0,0,5.2h7.7842a2.6,2.6,0,0,0,0-5.2Z" style="fill:#e4d9c6"/><rect y="-0.0032" width="96" height="96" style="fill:none"/></svg>